<svg xmlns="http://www.w3.org/2000/svg" width="25.5" height="25.5" viewBox="0 0 25.5 25.5">
    <defs>
        <style>
            .prefix__cls-2{fill:none;stroke:#f45daa;stroke-width:1.5px;stroke-linecap:round;stroke-linejoin:round}
        </style>
    </defs>
    <g id="prefix__Group_4546" data-name="Group 4546" transform="translate(-618.25 -88.25)">
        <path id="prefix__Rectangle_3217" d="M0 0H24V24H0z" data-name="Rectangle 3217" transform="translate(619 89)" style="opacity:0;fill:none;stroke:#f45daa;stroke-width:1.5px"/>
        <circle id="prefix__Ellipse_1094" cx="1.5" cy="1.5" r="1.5" class="prefix__cls-2" data-name="Ellipse 1094" transform="translate(632.496 105.723)"/>
        <circle id="prefix__Ellipse_1095" cx="1.5" cy="1.5" r="1.5" class="prefix__cls-2" data-name="Ellipse 1095" transform="translate(632.496 93.278)"/>
        <circle id="prefix__Ellipse_1096" cx="1.5" cy="1.5" r="1.5" class="prefix__cls-2" data-name="Ellipse 1096" transform="translate(630 99.5)"/>
        <path id="prefix__Line_17" d="M0 0L7 0" class="prefix__cls-2" data-name="Line 17" transform="translate(623 107.223)"/>
        <path id="prefix__Line_17-2" d="M0 0L3.505 0" class="prefix__cls-2" data-name="Line 17" transform="translate(635.496 107.223)"/>
        <path id="prefix__Line_17-3" d="M0 0L7 0" class="prefix__cls-2" data-name="Line 17" transform="translate(623 94.778)"/>
        <path id="prefix__Line_17-4" d="M0 0L3.505 0" class="prefix__cls-2" data-name="Line 17" transform="translate(635.496 94.778)"/>
        <path id="prefix__Line_17-5" d="M0 0L4.504 0" class="prefix__cls-2" data-name="Line 17" transform="translate(623 101)"/>
        <path id="prefix__Line_17-6" d="M0 0L6 0" class="prefix__cls-2" data-name="Line 17" transform="translate(633 101)"/>
    </g>
</svg>
