<svg xmlns="http://www.w3.org/2000/svg" width="25.5" height="25.5" viewBox="0 0 25.5 25.5">
  <defs>
    <style>
      .cls-1, .cls-2 {
        fill: none;
        stroke: #3c4859;
        stroke-width: 1.5px;
      }

      .cls-1 {
        opacity: 0;
      }

      .cls-2 {
        stroke-linecap: round;
        stroke-linejoin: round;
      }
    </style>
  </defs>
  <g id="Group_4549" data-name="Group 4549" transform="translate(-546.25 -88.25)">
    <rect id="Rectangle_3211" data-name="Rectangle 3211" class="cls-1" width="24" height="24" transform="translate(547 89)"/>
    <path id="Path_5317" data-name="Path 5317" class="cls-2" d="M357.674,687.388a1.851,1.851,0,0,1-3.7,0" transform="translate(203.177 -580.206)"/>
    <path id="Path_5318" data-name="Path 5318" class="cls-2" d="M349.6,684.127l1.258-1.748a3.025,3.025,0,0,0,.571-1.77v-1.82a4.524,4.524,0,0,1,3.964-4.564,4.4,4.4,0,0,1,4.827,4.375v2.007a3.032,3.032,0,0,0,.571,1.77l1.248,1.734a1.6,1.6,0,0,1,.213,1.482,2.738,2.738,0,0,1-2.578,1.795h-7.7a2.739,2.739,0,0,1-2.642-1.984A1.5,1.5,0,0,1,349.6,684.127Z" transform="translate(203.177 -580.206)"/>
    <path id="Path_5319" data-name="Path 5319" class="cls-2" d="M361.024,673.238a7.332,7.332,0,0,1,2.151,5.2" transform="translate(203.177 -580.206)"/>
    <path id="Path_5320" data-name="Path 5320" class="cls-2" d="M348.472,678.433a7.332,7.332,0,0,1,2.151-5.2" transform="translate(203.177 -580.206)"/>
  </g>
</svg>
